<?xml version="1.0" encoding="UTF-8" standalone="no"?>
<!-- Created with Inkscape (http://www.inkscape.org/) -->

<svg
   width="133.942mm"
   height="133.942mm"
   viewBox="0 0 133.942 133.942"
   version="1.1"
   id="svg5"
   xml:space="preserve"
   sodipodi:docname="better_vp.svg"
   inkscape:version="1.2.1 (9c6d41e410, 2022-07-14)"
   xmlns:inkscape="http://www.inkscape.org/namespaces/inkscape"
   xmlns:sodipodi="http://sodipodi.sourceforge.net/DTD/sodipodi-0.dtd"
   xmlns="http://www.w3.org/2000/svg"
   xmlns:svg="http://www.w3.org/2000/svg"><sodipodi:namedview
     id="namedview1059"
     pagecolor="#ffffff"
     bordercolor="#000000"
     borderopacity="0.25"
     inkscape:showpageshadow="2"
     inkscape:pageopacity="0.0"
     inkscape:pagecheckerboard="0"
     inkscape:deskcolor="#d1d1d1"
     inkscape:document-units="mm"
     showgrid="false"
     inkscape:zoom="1.3185685"
     inkscape:cx="167.98521"
     inkscape:cy="276.81535"
     inkscape:window-width="1920"
     inkscape:window-height="1017"
     inkscape:window-x="1912"
     inkscape:window-y="1072"
     inkscape:window-maximized="1"
     inkscape:current-layer="svg5" /><defs
     id="defs2" /><path
     id="rect7878-1-4-5-6-9"
     style="fill:#101010;fill-opacity:1;stroke-width:0.217604"
     d="m 27.69284,75.43021 10e-6,17.28902 a 4.4492438,4.4492438 0 0 0 2.32471,3.90923 l 33.531704,18.22335 a 5.0672353,5.0672353 0 0 0 4.690083,0.0779 L 104.37624,96.81823 a 4.2856101,4.2856101 0 0 0 2.36538,-3.83134 V 75.69832 A 1.6334743,1.6334743 0 0 0 104.37624,74.238 L 68.239347,92.34948 a 5.0671798,5.0671798 0 0 1 -4.690071,-0.0779 L 30.01753,74.04782 a 1.5733825,1.5733825 0 0 0 -2.32469,1.38241 z" /><path
     id="rect8564-5-2-2-8"
     d="m 121.24371,47.15302 h 6.85971 a 1.3229167,1.3229167 0 0 1 1.32292,1.32291 v 29.67304 a 1.3229167,1.3229167 0 0 1 -1.32292,1.32291 h -6.85971 a 1.3229167,1.3229167 0 0 1 -1.32292,-1.32291 V 48.47593 a 1.3229167,1.3229167 0 0 1 1.32292,-1.32291 z"
     style="fill:#4f4f4f;fill-opacity:1;stroke-width:0.23663" /><path
     id="rect7878-5-2-8-9"
     d="M 6.43822,45.08023 64.928748,15.7652 a 4.9752653,2.5978238 0.95151577 0 1 7.035117,0.11685 l 56.009905,30.43967 a 4.9752653,2.5978238 0.95151577 0 1 -0.061,3.67337 L 69.422236,79.31012 A 4.9752653,2.5978238 0.95151577 0 1 62.387118,79.19328 L 6.37721,48.7536 a 4.9752653,2.5978238 0.95151577 0 1 0.061,-3.67337 z"
     style="fill:#2f2f2f;fill-opacity:1;stroke-width:0.217603" /><path
     id="rect395"
     style="fill:#e8e8e8;stroke-width:0.264999;fill-opacity:1"
     d="M 43.994731 35.641752 C 43.721721 35.641752 43.543366 35.736449 43.459363 35.925456 C 43.354359 36.114462 43.354359 36.324384 43.459363 36.555391 L 52.972477 58.007312 C 53.077481 58.196318 53.224271 58.364669 53.413277 58.511674 C 53.623284 58.637678 53.833723 58.70081 54.04373 58.70081 L 58.233138 58.70081 C 58.443145 58.70081 58.642545 58.637678 58.831551 58.511674 C 59.041558 58.364669 59.199387 58.196318 59.30439 58.007312 L 68.912073 36.429301 C 68.996076 36.261295 68.985554 36.093461 68.88055 35.925456 C 68.775547 35.736449 68.607713 35.641752 68.376705 35.641752 L 63.147567 35.641752 C 62.93756 35.641752 62.727121 35.715405 62.517114 35.86241 C 62.328108 35.988415 62.181318 36.145727 62.076314 36.334733 L 56.563472 48.998043 C 56.458469 49.187049 56.322201 49.281746 56.154195 49.281746 C 55.986189 49.281746 55.849405 49.187049 55.744401 48.998043 L 50.200553 36.334733 C 50.09555 36.145727 49.937721 35.988415 49.727714 35.86241 C 49.538708 35.715405 49.339308 35.641752 49.129301 35.641752 L 43.994731 35.641752 z M 72.156836 35.641752 C 71.946829 35.641752 71.767956 35.715405 71.620951 35.86241 C 71.473946 36.009415 71.40081 36.187771 71.40081 36.397778 L 71.40081 57.944784 C 71.40081 58.154791 71.473946 58.333146 71.620951 58.480151 C 71.767956 58.627156 71.946829 58.70081 72.156836 58.70081 L 76.913135 58.70081 C 77.123142 58.70081 77.302014 58.627156 77.449019 58.480151 C 77.596024 58.333146 77.669161 58.154791 77.669161 57.944784 L 77.669161 53.251013 C 77.669161 53.041006 77.742814 52.862134 77.889819 52.715129 C 78.036824 52.568124 78.21518 52.494987 78.425187 52.494987 L 81.166105 52.494987 C 82.699157 52.494987 84.032339 52.285066 85.166378 51.865051 C 86.321417 51.424036 87.277361 50.835843 88.033386 50.100818 C 88.810413 49.344792 89.387567 48.462502 89.76558 47.454468 C 90.143593 46.425433 90.332987 45.323216 90.332987 44.147176 C 90.332987 42.971136 90.102022 41.868403 89.640007 40.839368 C 89.198992 39.810333 88.589754 38.907515 87.812728 38.130489 C 87.056702 37.353463 86.153885 36.744225 85.103849 36.30321 C 84.074814 35.862195 82.972081 35.641752 81.796041 35.641752 L 72.156836 35.641752 z M 78.425187 41.437781 L 81.386247 41.437781 C 81.827262 41.437781 82.216056 41.521956 82.552067 41.689962 C 82.888078 41.836967 83.171653 42.036366 83.402661 42.288375 C 83.633669 42.540383 83.801503 42.83448 83.906506 43.170492 C 84.032511 43.485502 84.095642 43.811165 84.095642 44.147176 C 84.095642 44.798198 83.906764 45.385875 83.528752 45.910893 C 83.17174 46.41491 82.594068 46.666919 81.796041 46.666919 L 78.425187 46.666919 C 78.21518 46.666919 78.036824 46.593782 77.889819 46.446777 C 77.742814 46.299772 77.669161 46.1209 77.669161 45.910893 L 77.669161 42.193807 C 77.669161 41.9838 77.742814 41.805444 77.889819 41.658439 C 78.036824 41.511434 78.21518 41.437781 78.425187 41.437781 z " /></svg>
