<?xml version="1.0" encoding="UTF-8" standalone="no"?>
<!-- Created with Inkscape (http://www.inkscape.org/) -->

<svg
   width="133.942mm"
   height="133.942mm"
   viewBox="0 0 133.942 133.942"
   version="1.1"
   id="svg5"
   xml:space="preserve"
   sodipodi:docname="Vplan_export3.svg"
   inkscape:version="1.2.1 (9c6d41e410, 2022-07-14)"
   xmlns:inkscape="http://www.inkscape.org/namespaces/inkscape"
   xmlns:sodipodi="http://sodipodi.sourceforge.net/DTD/sodipodi-0.dtd"
   xmlns="http://www.w3.org/2000/svg"
   xmlns:svg="http://www.w3.org/2000/svg"><sodipodi:namedview
     id="namedview1059"
     pagecolor="#ffffff"
     bordercolor="#000000"
     borderopacity="0.25"
     inkscape:showpageshadow="2"
     inkscape:pageopacity="0.0"
     inkscape:pagecheckerboard="0"
     inkscape:deskcolor="#d1d1d1"
     inkscape:document-units="mm"
     showgrid="false"
     inkscape:zoom="0.46618436"
     inkscape:cx="78.295204"
     inkscape:cy="253.11874"
     inkscape:window-width="1920"
     inkscape:window-height="1017"
     inkscape:window-x="1912"
     inkscape:window-y="1072"
     inkscape:window-maximized="1"
     inkscape:current-layer="svg5" /><defs
     id="defs2" /><path
     id="rect7878-1-4-5-6-9"
     style="fill:#101010;fill-opacity:1;stroke-width:0.217604"
     d="m 27.69284,75.43021 10e-6,17.28902 a 4.4492438,4.4492438 0 0 0 2.32471,3.90923 l 33.531704,18.22335 a 5.0672353,5.0672353 0 0 0 4.690083,0.0779 L 104.37624,96.81823 a 4.2856101,4.2856101 0 0 0 2.36538,-3.83134 V 75.69832 A 1.6334743,1.6334743 0 0 0 104.37624,74.238 L 68.239347,92.34948 a 5.0671798,5.0671798 0 0 1 -4.690071,-0.0779 L 30.01753,74.04782 a 1.5733825,1.5733825 0 0 0 -2.32469,1.38241 z" /><path
     id="rect8564-5-2-2-8"
     d="m 121.24371,47.15302 h 6.85971 a 1.3229167,1.3229167 0 0 1 1.32292,1.32291 v 29.67304 a 1.3229167,1.3229167 0 0 1 -1.32292,1.32291 h -6.85971 a 1.3229167,1.3229167 0 0 1 -1.32292,-1.32291 V 48.47593 a 1.3229167,1.3229167 0 0 1 1.32292,-1.32291 z"
     style="fill:#4f4f4f;fill-opacity:1;stroke-width:0.23663" /><path
     id="rect7878-5-2-8-9"
     d="M 6.43822,45.08023 64.928748,15.7652 a 4.9752653,2.5978238 0.95151577 0 1 7.035117,0.11685 l 56.009905,30.43967 a 4.9752653,2.5978238 0.95151577 0 1 -0.061,3.67337 L 69.422236,79.31012 A 4.9752653,2.5978238 0.95151577 0 1 62.387118,79.19328 L 6.37721,48.7536 a 4.9752653,2.5978238 0.95151577 0 1 0.061,-3.67337 z"
     style="fill:#2f2f2f;fill-opacity:1;stroke-width:0.217603" /><text
     xml:space="preserve"
     style="font-style:normal;font-variant:normal;font-weight:bold;font-stretch:normal;font-size:31.5011px;font-family:'LEMON MILK';-inkscape-font-specification:'LEMON MILK Bold';text-align:center;text-anchor:middle;fill:#6c6c6c;fill-opacity:1;stroke-width:0.23663"
     x="67.336998"
     y="58.700562"
     id="text348-9-5-0-0"><tspan
       id="tspan346-4-9-3-2"
       style="font-style:normal;font-variant:normal;font-weight:bold;font-stretch:normal;font-family:Heavitas;-inkscape-font-specification:'Heavitas Bold';fill:#e7e7e7;fill-opacity:1;stroke-width:0.236631"
       x="67.336998"
       y="58.700562">VP</tspan></text></svg>
